<?xml version="1.0" encoding="utf-8" standalone="no"?>
<!DOCTYPE svg PUBLIC "-//W3C//DTD SVG 1.1//EN"
  "http://www.w3.org/Graphics/SVG/1.1/DTD/svg11.dtd">
<svg xmlns:xlink="http://www.w3.org/1999/xlink" width="1110.672pt" height="315.288972pt" viewBox="0 0 1110.672 315.288972" xmlns="http://www.w3.org/2000/svg" version="1.1">
 <metadata>
  <rdf:RDF xmlns:dc="http://purl.org/dc/elements/1.1/" xmlns:cc="http://creativecommons.org/ns#" xmlns:rdf="http://www.w3.org/1999/02/22-rdf-syntax-ns#">
   <cc:Work>
    <dc:type rdf:resource="http://purl.org/dc/dcmitype/StillImage"/>
    <dc:date>2026-05-30T18:09:19.820251</dc:date>
    <dc:format>image/svg+xml</dc:format>
    <dc:creator>
     <cc:Agent>
      <dc:title>Matplotlib v3.10.0, https://matplotlib.org/</dc:title>
     </cc:Agent>
    </dc:creator>
   </cc:Work>
  </rdf:RDF>
 </metadata>
 <defs>
  <style type="text/css">*{stroke-linejoin: round; stroke-linecap: butt}</style>
 </defs>
 <g id="figure_1">
  <g id="patch_1">
   <path d="M 0 315.288972 
L 1110.672 315.288972 
L 1110.672 0 
L 0 0 
z
" style="fill: #ffffff"/>
  </g>
  <g id="axes_1">
   <g id="patch_2">
    <path d="M 3.6 311.688972 
L 363.037134 311.688972 
L 363.037134 3.6 
L 3.6 3.6 
z
" style="fill: #ffffff"/>
   </g>
   <g id="patch_3">
    <path d="M 37.832108 217.550675 
L 76.343229 243.224756 
L 136.249418 256.061796 
L 208.992648 281.735877 
L 281.735877 294.572918 
L 324.526012 260.34081 
L 345.92108 200.434621 
L 333.084039 136.249418 
L 320.246999 72.064216 
L 273.17785 20.716054 
L 221.829688 46.390135 
L 174.76054 80.622243 
L 123.412378 67.785202 
L 76.343229 54.948162 
L 63.506189 110.575337 
L 29.274081 153.365472 
z
" clip-path="url(#pc16f11642d)" style="fill: #fff2e6; opacity: 0.58; stroke: #e15759; stroke-width: 1.8; stroke-linejoin: miter"/>
   </g>
   <g id="matplotlib.axis_1"/>
   <g id="matplotlib.axis_2"/>
   <g id="patch_4">
    <path d="M 30.590701 151.390543 
L 56.264781 140.693009 
L 57.910556 144.642868 
L 32.236475 155.340402 
z
" clip-path="url(#pc16f11642d)" style="fill: #ffe55c; opacity: 0.72; stroke: #d5b600; stroke-linejoin: miter"/>
   </g>
   <g id="patch_5">
    <path d="M 57.8389 140.664656 
L 92.071008 153.501696 
L 90.568546 157.508262 
L 56.336438 144.671221 
z
" clip-path="url(#pc16f11642d)" style="fill: #ffe55c; opacity: 0.72; stroke: #d5b600; stroke-linejoin: miter"/>
   </g>
   <g id="patch_6">
    <path d="M 91.65346 153.391654 
L 132.304088 159.810174 
L 131.636722 164.036825 
L 90.986094 157.618305 
z
" clip-path="url(#pc16f11642d)" style="fill: #ffe55c; opacity: 0.72; stroke: #d5b600; stroke-linejoin: miter"/>
   </g>
   <g id="patch_7">
    <path d="M 35.692601 196.155607 
L 63.506189 196.155607 
L 63.506189 200.434621 
L 35.692601 200.434621 
z
" clip-path="url(#pc16f11642d)" style="fill: #ffe55c; opacity: 0.72; stroke: #d5b600; stroke-linejoin: miter"/>
   </g>
   <g id="patch_8">
    <path d="M 63.658622 196.161044 
L 93.611717 198.300551 
L 93.30685 202.56869 
L 63.353755 200.429184 
z
" clip-path="url(#pc16f11642d)" style="fill: #ffe55c; opacity: 0.72; stroke: #d5b600; stroke-linejoin: miter"/>
   </g>
   <g id="patch_9">
    <path d="M 93.246395 198.305732 
L 114.641462 196.166225 
L 115.06724 200.424003 
L 93.672172 202.56351 
z
" clip-path="url(#pc16f11642d)" style="fill: #ffe55c; opacity: 0.72; stroke: #d5b600; stroke-linejoin: miter"/>
   </g>
   <g id="patch_10">
    <path d="M 113.074174 197.108329 
L 121.632201 184.271289 
L 125.192555 186.644858 
L 116.634528 199.481899 
z
" clip-path="url(#pc16f11642d)" style="fill: #ffe55c; opacity: 0.72; stroke: #d5b600; stroke-linejoin: miter"/>
   </g>
   <g id="patch_11">
    <path d="M 121.348259 184.895132 
L 127.766779 161.360558 
L 131.895017 162.486441 
L 125.476497 186.021015 
z
" clip-path="url(#pc16f11642d)" style="fill: #ffe55c; opacity: 0.72; stroke: #d5b600; stroke-linejoin: miter"/>
   </g>
   <g id="patch_12">
    <path d="M 127.720502 161.571767 
L 134.139022 123.060645 
L 138.359815 123.764111 
L 131.941295 162.275232 
z
" clip-path="url(#pc16f11642d)" style="fill: #ffe55c; opacity: 0.72; stroke: #d5b600; stroke-linejoin: miter"/>
   </g>
   <g id="patch_13">
    <path d="M 134.262936 122.617785 
L 151.37899 79.82765 
L 155.351954 81.416836 
L 138.2359 124.206971 
z
" clip-path="url(#pc16f11642d)" style="fill: #ffe55c; opacity: 0.72; stroke: #d5b600; stroke-linejoin: miter"/>
   </g>
   <g id="patch_14">
    <path d="M 114.565275 196.175226 
L 161.634424 189.756706 
L 162.212575 193.996482 
L 115.143426 200.415002 
z
" clip-path="url(#pc16f11642d)" style="fill: #ffe55c; opacity: 0.72; stroke: #d5b600; stroke-linejoin: miter"/>
   </g>
   <g id="patch_15">
    <path d="M 161.923499 189.737087 
L 208.992648 189.737087 
L 208.992648 194.016101 
L 161.923499 194.016101 
z
" clip-path="url(#pc16f11642d)" style="fill: #ffe55c; opacity: 0.72; stroke: #d5b600; stroke-linejoin: miter"/>
   </g>
   <g id="patch_16">
    <path d="M 209.258021 189.753609 
L 243.490129 194.032622 
L 242.959383 198.278592 
L 208.727275 193.999579 
z
" clip-path="url(#pc16f11642d)" style="fill: #ffe55c; opacity: 0.72; stroke: #d5b600; stroke-linejoin: miter"/>
   </g>
   <g id="patch_17">
    <path d="M 244.019349 194.169125 
L 265.414416 202.727152 
L 263.82523 206.700116 
L 242.430163 198.142089 
z
" clip-path="url(#pc16f11642d)" style="fill: #ffe55c; opacity: 0.72; stroke: #d5b600; stroke-linejoin: miter"/>
   </g>
   <g id="patch_18">
    <path d="M 116.820868 197.452321 
L 123.239388 212.428868 
L 119.306354 214.114454 
L 112.887834 199.137907 
z
" clip-path="url(#pc16f11642d)" style="fill: #ffe55c; opacity: 0.72; stroke: #d5b600; stroke-linejoin: miter"/>
   </g>
   <g id="patch_19">
    <path d="M 122.177637 211.332876 
L 154.270239 226.309424 
L 152.460706 230.186993 
L 120.368105 215.210446 
z
" clip-path="url(#pc16f11642d)" style="fill: #ffe55c; opacity: 0.72; stroke: #d5b600; stroke-linejoin: miter"/>
   </g>
   <g id="patch_20">
    <path d="M 154.072259 226.228817 
L 196.862394 241.205364 
L 195.44882 245.244147 
L 152.658685 230.2676 
z
" clip-path="url(#pc16f11642d)" style="fill: #ffe55c; opacity: 0.72; stroke: #d5b600; stroke-linejoin: miter"/>
   </g>
   <g id="patch_21">
    <path d="M 196.244676 241.087104 
L 247.592838 243.22661 
L 247.4147 247.501914 
L 196.066538 245.362408 
z
" clip-path="url(#pc16f11642d)" style="fill: #ffe55c; opacity: 0.72; stroke: #d5b600; stroke-linejoin: miter"/>
   </g>
   <g id="patch_22">
    <path d="M 246.827198 243.334548 
L 278.919799 232.637014 
L 280.272942 236.696443 
L 248.180341 247.393977 
z
" clip-path="url(#pc16f11642d)" style="fill: #ffe55c; opacity: 0.72; stroke: #d5b600; stroke-linejoin: miter"/>
   </g>
   <g id="patch_23">
    <path d="M 277.682737 235.623545 
L 262.70619 205.670451 
L 266.533456 203.756818 
L 281.510003 233.709912 
z
" clip-path="url(#pc16f11642d)" style="fill: #ffe55c; opacity: 0.72; stroke: #d5b600; stroke-linejoin: miter"/>
   </g>
   <g id="patch_24">
    <path d="M 154.042044 78.592529 
L 186.134645 89.290062 
L 184.781502 93.349491 
L 152.688901 82.651957 
z
" clip-path="url(#pc16f11642d)" style="fill: #ffe55c; opacity: 0.72; stroke: #d5b600; stroke-linejoin: miter"/>
   </g>
   <g id="patch_25">
    <path d="M 186.472413 89.436003 
L 214.286001 104.41255 
L 212.257321 108.180098 
L 184.443734 93.20355 
z
" clip-path="url(#pc16f11642d)" style="fill: #ffe55c; opacity: 0.72; stroke: #d5b600; stroke-linejoin: miter"/>
   </g>
   <g id="patch_26">
    <path d="M 214.022892 104.293041 
L 248.255 117.130082 
L 246.752538 121.136647 
L 212.52043 108.299606 
z
" clip-path="url(#pc16f11642d)" style="fill: #ffe55c; opacity: 0.72; stroke: #d5b600; stroke-linejoin: miter"/>
   </g>
   <g id="patch_27">
    <path d="M 247.9938 117.050732 
L 284.365415 125.608759 
L 283.385353 129.774024 
L 247.013738 121.215997 
z
" clip-path="url(#pc16f11642d)" style="fill: #ffe55c; opacity: 0.72; stroke: #d5b600; stroke-linejoin: miter"/>
   </g>
   <g id="patch_28">
    <path d="M 282.688599 125.911214 
L 301.94416 113.074174 
L 304.317729 116.634528 
L 285.062169 129.471569 
z
" clip-path="url(#pc16f11642d)" style="fill: #ffe55c; opacity: 0.72; stroke: #d5b600; stroke-linejoin: miter"/>
   </g>
   <g id="patch_29">
    <path d="M 301.144462 114.059758 
L 318.260516 71.269623 
L 322.233481 72.858809 
L 305.117427 115.648944 
z
" clip-path="url(#pc16f11642d)" style="fill: #ffe55c; opacity: 0.72; stroke: #d5b600; stroke-linejoin: miter"/>
   </g>
   <g id="patch_30">
    <path d="M 322.250281 72.815447 
L 309.413241 107.047555 
L 305.406676 105.545093 
L 318.243716 71.312985 
z
" clip-path="url(#pc16f11642d)" style="fill: #ffe55c; opacity: 0.72; stroke: #d5b600; stroke-linejoin: miter"/>
   </g>
   <g id="patch_31">
    <path d="M 309.157866 107.530141 
L 283.483785 143.901756 
L 279.987969 141.434121 
L 305.66205 105.062506 
z
" clip-path="url(#pc16f11642d)" style="fill: #ffe55c; opacity: 0.72; stroke: #d5b600; stroke-linejoin: miter"/>
   </g>
   <g id="patch_32">
    <path d="M 283.702394 143.510732 
L 270.865354 173.463826 
L 266.93232 171.77824 
L 279.76936 141.825146 
z
" clip-path="url(#pc16f11642d)" style="fill: #ffe55c; opacity: 0.72; stroke: #d5b600; stroke-linejoin: miter"/>
   </g>
   <g id="patch_33">
    <path d="M 271.019575 172.903798 
L 266.740562 204.996399 
L 262.499084 204.430869 
L 266.778098 172.338268 
z
" clip-path="url(#pc16f11642d)" style="fill: #ffe55c; opacity: 0.72; stroke: #d5b600; stroke-linejoin: miter"/>
   </g>
   <g id="patch_34">
    <path d="M 266.331429 203.42993 
L 285.586989 229.104011 
L 282.163779 231.671419 
L 262.908218 205.997338 
z
" clip-path="url(#pc16f11642d)" style="fill: #ffe55c; opacity: 0.72; stroke: #d5b600; stroke-linejoin: miter"/>
   </g>
   <g id="patch_35">
    <path d="M 284.637038 228.388372 
L 329.56668 245.504426 
L 328.043371 249.503112 
L 283.113729 232.387058 
z
" clip-path="url(#pc16f11642d)" style="fill: #ffe55c; opacity: 0.72; stroke: #d5b600; stroke-linejoin: miter"/>
   </g>
   <g id="patch_36">
    <path d="M 112.485685 260.252245 
C 141.990684 260.252245 170.291206 248.529784 191.154391 227.6666 
C 212.017576 206.803415 223.740036 178.502892 223.740036 148.997894 
C 223.740036 119.492895 212.017576 91.192372 191.154391 70.329188 
C 170.291206 49.466003 141.990684 37.743543 112.485685 37.743543 
C 82.980686 37.743543 54.680164 49.466003 33.816979 70.329188 
C 12.953795 91.192372 1.231334 119.492895 1.231334 148.997894 
C 1.231334 178.502892 12.953795 206.803415 33.816979 227.6666 
C 54.680164 248.529784 82.980686 260.252245 112.485685 260.252245 
L 112.485685 260.252245 
z
" clip-path="url(#pc16f11642d)" style="fill: none; opacity: 0.42; stroke-dasharray: 0.95,1.5675; stroke-dashoffset: 0; stroke: #e63232; stroke-width: 0.95; stroke-linejoin: miter"/>
   </g>
   <g id="patch_37">
    <path d="M 258.111506 331.540292 
C 287.616505 331.540292 315.917027 319.817831 336.780212 298.954647 
C 357.643397 278.091462 369.365857 249.790939 369.365857 220.285941 
C 369.365857 190.780942 357.643397 162.48042 336.780212 141.617235 
C 315.917027 120.75405 287.616505 109.03159 258.111506 109.03159 
C 228.606507 109.03159 200.305985 120.75405 179.4428 141.617235 
C 158.579616 162.48042 146.857155 190.780942 146.857155 220.285941 
C 146.857155 249.790939 158.579616 278.091462 179.4428 298.954647 
C 200.305985 319.817831 228.606507 331.540292 258.111506 331.540292 
" clip-path="url(#pc16f11642d)" style="fill: none; opacity: 0.42; stroke-dasharray: 0.95,1.5675; stroke-dashoffset: 0; stroke: #e63232; stroke-width: 0.95; stroke-linejoin: miter"/>
   </g>
   <g id="patch_38">
    <path d="M 239.061529 59.920721 
L 256.177583 59.920721 
L 256.177583 49.223187 
L 239.061529 49.223187 
z
" clip-path="url(#pc16f11642d)" style="fill: #af7aa1; opacity: 0.93; stroke: #1f2937; stroke-width: 0.65; stroke-linejoin: miter"/>
   </g>
   <g id="patch_39">
    <path d="M 243.376409 84.062845 
L 254.073943 84.062845 
L 254.073943 66.946791 
L 243.376409 66.946791 
z
" clip-path="url(#pc16f11642d)" style="fill: #af7aa1; opacity: 0.93; stroke: #1f2937; stroke-width: 0.65; stroke-linejoin: miter"/>
   </g>
   <g id="patch_40">
    <path d="M 308.035338 157.344397 
L 325.151391 157.344397 
L 325.151391 146.646863 
L 308.035338 146.646863 
z
" clip-path="url(#pc16f11642d)" style="fill: #af7aa1; opacity: 0.93; stroke: #1f2937; stroke-width: 0.65; stroke-linejoin: miter"/>
   </g>
   <g id="patch_41">
    <path d="M 263.20656 79.968552 
L 280.322614 79.968552 
L 280.322614 69.271019 
L 263.20656 69.271019 
z
" clip-path="url(#pc16f11642d)" style="fill: #af7aa1; opacity: 0.93; stroke: #1f2937; stroke-width: 0.65; stroke-linejoin: miter"/>
   </g>
   <g id="patch_42">
    <path d="M 220.17969 87.021458 
L 237.295744 87.021458 
L 237.295744 76.323924 
L 220.17969 76.323924 
z
" clip-path="url(#pc16f11642d)" style="fill: #af7aa1; opacity: 0.93; stroke: #1f2937; stroke-width: 0.65; stroke-linejoin: miter"/>
   </g>
   <g id="patch_43">
    <path d="M 234.262418 110.535125 
L 244.959951 110.535125 
L 244.959951 95.558577 
L 234.262418 95.558577 
z
" clip-path="url(#pc16f11642d)" style="fill: #ff9d9a; opacity: 0.93; stroke: #1f2937; stroke-width: 0.65; stroke-linejoin: miter"/>
   </g>
   <g id="patch_44">
    <path d="M 249.389833 102.488192 
L 264.36638 102.488192 
L 264.36638 91.790658 
L 249.389833 91.790658 
z
" clip-path="url(#pc16f11642d)" style="fill: #ff9d9a; opacity: 0.93; stroke: #1f2937; stroke-width: 0.65; stroke-linejoin: miter"/>
   </g>
   <g id="patch_45">
    <path d="M 274.357114 93.300384 
L 289.333661 93.300384 
L 289.333661 82.60285 
L 274.357114 82.60285 
z
" clip-path="url(#pc16f11642d)" style="fill: #ff9d9a; opacity: 0.93; stroke: #1f2937; stroke-width: 0.65; stroke-linejoin: miter"/>
   </g>
   <g id="patch_46">
    <path d="M 216.568588 102.974636 
L 231.545135 102.974636 
L 231.545135 92.277102 
L 216.568588 92.277102 
z
" clip-path="url(#pc16f11642d)" style="fill: #ff9d9a; opacity: 0.93; stroke: #1f2937; stroke-width: 0.65; stroke-linejoin: miter"/>
   </g>
   <g id="patch_47">
    <path d="M 164.962831 148.429669 
L 199.194939 148.429669 
L 199.194939 101.36052 
L 164.962831 101.36052 
z
" clip-path="url(#pc16f11642d)" style="fill: #4e79a7; opacity: 0.93; stroke: #1f2937; stroke-width: 1.35; stroke-linejoin: miter"/>
   </g>
   <g id="patch_48">
    <path d="M 197.952905 238.666366 
L 245.022054 238.666366 
L 245.022054 204.434258 
L 197.952905 204.434258 
z
" clip-path="url(#pc16f11642d)" style="fill: #4e79a7; opacity: 0.93; stroke: #1f2937; stroke-width: 1.35; stroke-linejoin: miter"/>
   </g>
   <g id="patch_49">
    <path d="M 239.341123 158.47602 
L 256.457177 158.47602 
L 256.457177 147.778486 
L 239.341123 147.778486 
z
" clip-path="url(#pc16f11642d)" style="fill: #59a14f; opacity: 0.93; stroke: #1f2937; stroke-width: 0.65; stroke-linejoin: miter"/>
   </g>
   <g id="patch_50">
    <path d="M 210.965861 182.186427 
L 228.081915 182.186427 
L 228.081915 171.488893 
L 210.965861 171.488893 
z
" clip-path="url(#pc16f11642d)" style="fill: #59a14f; opacity: 0.93; stroke: #1f2937; stroke-width: 0.65; stroke-linejoin: miter"/>
   </g>
   <g id="patch_51">
    <path d="M 231.478793 138.139158 
L 248.594847 138.139158 
L 248.594847 127.441624 
L 231.478793 127.441624 
z
" clip-path="url(#pc16f11642d)" style="fill: #59a14f; opacity: 0.93; stroke: #1f2937; stroke-width: 0.65; stroke-linejoin: miter"/>
   </g>
   <g id="patch_52">
    <path d="M 87.285738 129.845863 
L 97.983272 129.845863 
L 97.983272 112.729809 
L 87.285738 112.729809 
z
" clip-path="url(#pc16f11642d)" style="fill: #59a14f; opacity: 0.93; stroke: #1f2937; stroke-width: 0.65; stroke-linejoin: miter"/>
   </g>
   <g id="patch_53">
    <path d="M 106.220096 88.60518 
L 123.33615 88.60518 
L 123.33615 77.907646 
L 106.220096 77.907646 
z
" clip-path="url(#pc16f11642d)" style="fill: #59a14f; opacity: 0.93; stroke: #1f2937; stroke-width: 0.65; stroke-linejoin: miter"/>
   </g>
   <g id="patch_54">
    <path d="M 154.582853 164.196535 
L 171.698907 164.196535 
L 171.698907 153.499001 
L 154.582853 153.499001 
z
" clip-path="url(#pc16f11642d)" style="fill: #59a14f; opacity: 0.93; stroke: #1f2937; stroke-width: 0.65; stroke-linejoin: miter"/>
   </g>
   <g id="patch_55">
    <path d="M 183.250279 165.593633 
L 200.366333 165.593633 
L 200.366333 154.8961 
L 183.250279 154.8961 
z
" clip-path="url(#pc16f11642d)" style="fill: #59a14f; opacity: 0.93; stroke: #1f2937; stroke-width: 0.65; stroke-linejoin: miter"/>
   </g>
   <g id="patch_56">
    <path d="M 178.260598 204.845196 
L 195.376652 204.845196 
L 195.376652 194.147663 
L 178.260598 194.147663 
z
" clip-path="url(#pc16f11642d)" style="fill: #59a14f; opacity: 0.93; stroke: #1f2937; stroke-width: 0.65; stroke-linejoin: miter"/>
   </g>
   <g id="patch_57">
    <path d="M 211.617549 168.38828 
L 222.315082 168.38828 
L 222.315082 151.272226 
L 211.617549 151.272226 
z
" clip-path="url(#pc16f11642d)" style="fill: #59a14f; opacity: 0.93; stroke: #1f2937; stroke-width: 0.65; stroke-linejoin: miter"/>
   </g>
   <g id="patch_58">
    <path d="M 213.869054 132.240868 
L 224.566588 132.240868 
L 224.566588 115.124814 
L 213.869054 115.124814 
z
" clip-path="url(#pc16f11642d)" style="fill: #59a14f; opacity: 0.93; stroke: #1f2937; stroke-width: 0.65; stroke-linejoin: miter"/>
   </g>
   <g id="patch_59">
    <path d="M 106.067165 155.416414 
L 118.904205 155.416414 
L 118.904205 142.579373 
L 106.067165 142.579373 
z
" clip-path="url(#pc16f11642d)" style="fill: #e15759; opacity: 0.93; stroke: #1f2937; stroke-width: 0.65; stroke-linejoin: miter"/>
   </g>
   <g id="patch_60">
    <path d="M 251.692986 226.704461 
L 264.530026 226.704461 
L 264.530026 213.867421 
L 251.692986 213.867421 
z
" clip-path="url(#pc16f11642d)" style="fill: #e15759; opacity: 0.93; stroke: #1f2937; stroke-width: 0.65; stroke-linejoin: miter"/>
   </g>
   <g id="line2d_1">
    <path d="M 33.553094 187.59758 
" clip-path="url(#pc16f11642d)" style="fill: none; stroke: #f4c430; stroke-width: 1.5; stroke-linecap: square"/>
    <defs>
     <path id="m48e1c5f40b" d="M 0 -3.5 
L -0.785799 -1.081559 
L -3.328698 -1.081559 
L -1.271449 0.413119 
L -2.057248 2.831559 
L -0 1.336881 
L 2.057248 2.831559 
L 1.271449 0.413119 
L 3.328698 -1.081559 
L 0.785799 -1.081559 
z
" style="stroke: #8a5a00; stroke-width: 0.7; stroke-linejoin: bevel"/>
    </defs>
    <g clip-path="url(#pc16f11642d)">
     <use xlink:href="#m48e1c5f40b" x="33.553094" y="187.59758" style="fill: #f4c430; stroke: #8a5a00; stroke-width: 0.7; stroke-linejoin: bevel"/>
    </g>
   </g>
   <g id="line2d_2">
    <path d="M 296.712424 42.111121 
" clip-path="url(#pc16f11642d)" style="fill: none; stroke: #f4c430; stroke-width: 1.5; stroke-linecap: square"/>
    <g clip-path="url(#pc16f11642d)">
     <use xlink:href="#m48e1c5f40b" x="296.712424" y="42.111121" style="fill: #f4c430; stroke: #8a5a00; stroke-width: 0.7; stroke-linejoin: bevel"/>
    </g>
   </g>
   <g id="line2d_3">
    <path d="M 300.991438 275.317357 
" clip-path="url(#pc16f11642d)" style="fill: none; stroke: #f4c430; stroke-width: 1.5; stroke-linecap: square"/>
    <g clip-path="url(#pc16f11642d)">
     <use xlink:href="#m48e1c5f40b" x="300.991438" y="275.317357" style="fill: #f4c430; stroke: #8a5a00; stroke-width: 0.7; stroke-linejoin: bevel"/>
    </g>
   </g>
   <g id="text_1">
    <!-- Phase 1 -->
    <g style="fill: #111827" transform="translate(10.01852 22.655815) scale(0.11 -0.11)">
     <defs>
      <path id="DejaVuSans-Bold-50" d="M 588 4666 
L 2584 4666 
Q 3475 4666 3951 4270 
Q 4428 3875 4428 3144 
Q 4428 2409 3951 2014 
Q 3475 1619 2584 1619 
L 1791 1619 
L 1791 0 
L 588 0 
L 588 4666 
z
M 1791 3794 
L 1791 2491 
L 2456 2491 
Q 2806 2491 2997 2661 
Q 3188 2831 3188 3144 
Q 3188 3456 2997 3625 
Q 2806 3794 2456 3794 
L 1791 3794 
z
" transform="scale(0.015625)"/>
      <path id="DejaVuSans-Bold-68" d="M 4056 2131 
L 4056 0 
L 2931 0 
L 2931 347 
L 2931 1625 
Q 2931 2084 2911 2256 
Q 2891 2428 2841 2509 
Q 2775 2619 2662 2680 
Q 2550 2741 2406 2741 
Q 2056 2741 1856 2470 
Q 1656 2200 1656 1722 
L 1656 0 
L 538 0 
L 538 4863 
L 1656 4863 
L 1656 2988 
Q 1909 3294 2193 3439 
Q 2478 3584 2822 3584 
Q 3428 3584 3742 3212 
Q 4056 2841 4056 2131 
z
" transform="scale(0.015625)"/>
      <path id="DejaVuSans-Bold-61" d="M 2106 1575 
Q 1756 1575 1579 1456 
Q 1403 1338 1403 1106 
Q 1403 894 1545 773 
Q 1688 653 1941 653 
Q 2256 653 2472 879 
Q 2688 1106 2688 1447 
L 2688 1575 
L 2106 1575 
z
M 3816 1997 
L 3816 0 
L 2688 0 
L 2688 519 
Q 2463 200 2181 54 
Q 1900 -91 1497 -91 
Q 953 -91 614 226 
Q 275 544 275 1050 
Q 275 1666 698 1953 
Q 1122 2241 2028 2241 
L 2688 2241 
L 2688 2328 
Q 2688 2594 2478 2717 
Q 2269 2841 1825 2841 
Q 1466 2841 1156 2769 
Q 847 2697 581 2553 
L 581 3406 
Q 941 3494 1303 3539 
Q 1666 3584 2028 3584 
Q 2975 3584 3395 3211 
Q 3816 2838 3816 1997 
z
" transform="scale(0.015625)"/>
      <path id="DejaVuSans-Bold-73" d="M 3272 3391 
L 3272 2541 
Q 2913 2691 2578 2766 
Q 2244 2841 1947 2841 
Q 1628 2841 1473 2761 
Q 1319 2681 1319 2516 
Q 1319 2381 1436 2309 
Q 1553 2238 1856 2203 
L 2053 2175 
Q 2913 2066 3209 1816 
Q 3506 1566 3506 1031 
Q 3506 472 3093 190 
Q 2681 -91 1863 -91 
Q 1516 -91 1145 -36 
Q 775 19 384 128 
L 384 978 
Q 719 816 1070 734 
Q 1422 653 1784 653 
Q 2113 653 2278 743 
Q 2444 834 2444 1013 
Q 2444 1163 2330 1236 
Q 2216 1309 1875 1350 
L 1678 1375 
Q 931 1469 631 1722 
Q 331 1975 331 2491 
Q 331 3047 712 3315 
Q 1094 3584 1881 3584 
Q 2191 3584 2531 3537 
Q 2872 3491 3272 3391 
z
" transform="scale(0.015625)"/>
      <path id="DejaVuSans-Bold-65" d="M 4031 1759 
L 4031 1441 
L 1416 1441 
Q 1456 1047 1700 850 
Q 1944 653 2381 653 
Q 2734 653 3104 758 
Q 3475 863 3866 1075 
L 3866 213 
Q 3469 63 3072 -14 
Q 2675 -91 2278 -91 
Q 1328 -91 801 392 
Q 275 875 275 1747 
Q 275 2603 792 3093 
Q 1309 3584 2216 3584 
Q 3041 3584 3536 3087 
Q 4031 2591 4031 1759 
z
M 2881 2131 
Q 2881 2450 2695 2645 
Q 2509 2841 2209 2841 
Q 1884 2841 1681 2658 
Q 1478 2475 1428 2131 
L 2881 2131 
z
" transform="scale(0.015625)"/>
      <path id="DejaVuSans-Bold-20" transform="scale(0.015625)"/>
      <path id="DejaVuSans-Bold-31" d="M 750 831 
L 1813 831 
L 1813 3847 
L 722 3622 
L 722 4441 
L 1806 4666 
L 2950 4666 
L 2950 831 
L 4013 831 
L 4013 0 
L 750 0 
L 750 831 
z
" transform="scale(0.015625)"/>
     </defs>
     <use xlink:href="#DejaVuSans-Bold-50"/>
     <use xlink:href="#DejaVuSans-Bold-68" transform="translate(73.291016 0)"/>
     <use xlink:href="#DejaVuSans-Bold-61" transform="translate(144.482422 0)"/>
     <use xlink:href="#DejaVuSans-Bold-73" transform="translate(211.962891 0)"/>
     <use xlink:href="#DejaVuSans-Bold-65" transform="translate(271.484375 0)"/>
     <use xlink:href="#DejaVuSans-Bold-20" transform="translate(339.306641 0)"/>
     <use xlink:href="#DejaVuSans-Bold-31" transform="translate(374.121094 0)"/>
    </g>
   </g>
  </g>
  <g id="axes_2">
   <g id="patch_61">
    <path d="M 375.617433 311.688972 
L 735.054567 311.688972 
L 735.054567 3.6 
L 375.617433 3.6 
z
" style="fill: #ffffff"/>
   </g>
   <g id="patch_62">
    <path d="M 409.849541 217.550675 
L 448.360663 243.224756 
L 508.266852 256.061796 
L 581.010081 281.735877 
L 653.75331 294.572918 
L 696.543445 260.34081 
L 717.938513 200.434621 
L 705.101472 136.249418 
L 692.264432 72.064216 
L 645.195283 20.716054 
L 593.847121 46.390135 
L 546.777973 80.622243 
L 495.429811 67.785202 
L 448.360663 54.948162 
L 435.523622 110.575337 
L 401.291514 153.365472 
z
" clip-path="url(#p978594a559)" style="fill: #fff2e6; opacity: 0.58; stroke: #e15759; stroke-width: 1.8; stroke-linejoin: miter"/>
   </g>
   <g id="matplotlib.axis_3"/>
   <g id="matplotlib.axis_4"/>
   <g id="patch_63">
    <path d="M 528.422238 156.987695 
L 579.7704 156.987695 
L 579.7704 92.802493 
L 528.422238 92.802493 
z
" clip-path="url(#p978594a559)" style="fill: url(#h82bec472cb); opacity: 0.18; stroke: #111827; stroke-width: 1.1; stroke-linejoin: miter"/>
   </g>
   <g id="patch_64">
    <path d="M 561.412312 247.224393 
L 625.597514 247.224393 
L 625.597514 195.876231 
L 561.412312 195.876231 
z
" clip-path="url(#p978594a559)" style="fill: url(#h82bec472cb); opacity: 0.18; stroke: #111827; stroke-width: 1.1; stroke-linejoin: miter"/>
   </g>
   <g id="patch_65">
    <path d="M 402.608134 151.390543 
L 428.282215 140.693009 
L 429.927989 144.642868 
L 404.253908 155.340402 
z
" clip-path="url(#p978594a559)" style="fill: #ffe55c; opacity: 0.72; stroke: #d5b600; stroke-linejoin: miter"/>
   </g>
   <g id="patch_66">
    <path d="M 429.856333 140.664656 
L 464.088441 153.501696 
L 462.585979 157.508262 
L 428.353871 144.671221 
z
" clip-path="url(#p978594a559)" style="fill: #ffe55c; opacity: 0.72; stroke: #d5b600; stroke-linejoin: miter"/>
   </g>
   <g id="patch_67">
    <path d="M 463.670893 153.391654 
L 504.321521 159.810174 
L 503.654155 164.036825 
L 463.003527 157.618305 
z
" clip-path="url(#p978594a559)" style="fill: #ffe55c; opacity: 0.72; stroke: #d5b600; stroke-linejoin: miter"/>
   </g>
   <g id="patch_68">
    <path d="M 407.710034 196.155607 
L 435.523622 196.155607 
L 435.523622 200.434621 
L 407.710034 200.434621 
z
" clip-path="url(#p978594a559)" style="fill: #ffe55c; opacity: 0.72; stroke: #d5b600; stroke-linejoin: miter"/>
   </g>
   <g id="patch_69">
    <path d="M 435.676056 196.161044 
L 465.62915 198.300551 
L 465.324283 202.56869 
L 435.371189 200.429184 
z
" clip-path="url(#p978594a559)" style="fill: #ffe55c; opacity: 0.72; stroke: #d5b600; stroke-linejoin: miter"/>
   </g>
   <g id="patch_70">
    <path d="M 465.263828 198.305732 
L 486.658895 196.166225 
L 487.084673 200.424003 
L 465.689605 202.56351 
z
" clip-path="url(#p978594a559)" style="fill: #ffe55c; opacity: 0.72; stroke: #d5b600; stroke-linejoin: miter"/>
   </g>
   <g id="patch_71">
    <path d="M 485.091607 197.108329 
L 493.649634 184.271289 
L 497.209988 186.644858 
L 488.651961 199.481899 
z
" clip-path="url(#p978594a559)" style="fill: #ffe55c; opacity: 0.72; stroke: #d5b600; stroke-linejoin: miter"/>
   </g>
   <g id="patch_72">
    <path d="M 493.365692 184.895132 
L 499.784213 161.360558 
L 503.91245 162.486441 
L 497.49393 186.021015 
z
" clip-path="url(#p978594a559)" style="fill: #ffe55c; opacity: 0.72; stroke: #d5b600; stroke-linejoin: miter"/>
   </g>
   <g id="patch_73">
    <path d="M 499.737935 161.571767 
L 506.156455 123.060645 
L 510.377248 123.764111 
L 503.958728 162.275232 
z
" clip-path="url(#p978594a559)" style="fill: #ffe55c; opacity: 0.72; stroke: #d5b600; stroke-linejoin: miter"/>
   </g>
   <g id="patch_74">
    <path d="M 506.280369 122.617785 
L 523.396423 79.82765 
L 527.369388 81.416836 
L 510.253334 124.206971 
z
" clip-path="url(#p978594a559)" style="fill: #ffe55c; opacity: 0.72; stroke: #d5b600; stroke-linejoin: miter"/>
   </g>
   <g id="patch_75">
    <path d="M 486.582708 196.175226 
L 533.651857 189.756706 
L 534.230008 193.996482 
L 487.16086 200.415002 
z
" clip-path="url(#p978594a559)" style="fill: #ffe55c; opacity: 0.72; stroke: #d5b600; stroke-linejoin: miter"/>
   </g>
   <g id="patch_76">
    <path d="M 533.940933 189.737087 
L 581.010081 189.737087 
L 581.010081 194.016101 
L 533.940933 194.016101 
z
" clip-path="url(#p978594a559)" style="fill: #ffe55c; opacity: 0.72; stroke: #d5b600; stroke-linejoin: miter"/>
   </g>
   <g id="patch_77">
    <path d="M 581.275454 189.753609 
L 615.507562 194.032622 
L 614.976816 198.278592 
L 580.744708 193.999579 
z
" clip-path="url(#p978594a559)" style="fill: #ffe55c; opacity: 0.72; stroke: #d5b600; stroke-linejoin: miter"/>
   </g>
   <g id="patch_78">
    <path d="M 616.036782 194.169125 
L 637.431849 202.727152 
L 635.842664 206.700116 
L 614.447596 198.142089 
z
" clip-path="url(#p978594a559)" style="fill: #ffe55c; opacity: 0.72; stroke: #d5b600; stroke-linejoin: miter"/>
   </g>
   <g id="patch_79">
    <path d="M 488.838301 197.452321 
L 495.256821 212.428868 
L 491.323787 214.114454 
L 484.905267 199.137907 
z
" clip-path="url(#p978594a559)" style="fill: #ffe55c; opacity: 0.72; stroke: #d5b600; stroke-linejoin: miter"/>
   </g>
   <g id="patch_80">
    <path d="M 494.195071 211.332876 
L 526.287672 226.309424 
L 524.478139 230.186993 
L 492.385538 215.210446 
z
" clip-path="url(#p978594a559)" style="fill: #ffe55c; opacity: 0.72; stroke: #d5b600; stroke-linejoin: miter"/>
   </g>
   <g id="patch_81">
    <path d="M 526.089693 226.228817 
L 568.879827 241.205364 
L 567.466254 245.244147 
L 524.676119 230.2676 
z
" clip-path="url(#p978594a559)" style="fill: #ffe55c; opacity: 0.72; stroke: #d5b600; stroke-linejoin: miter"/>
   </g>
   <g id="patch_82">
    <path d="M 568.262109 241.087104 
L 619.610271 243.22661 
L 619.432134 247.501914 
L 568.083972 245.362408 
z
" clip-path="url(#p978594a559)" style="fill: #ffe55c; opacity: 0.72; stroke: #d5b600; stroke-linejoin: miter"/>
   </g>
   <g id="patch_83">
    <path d="M 618.844631 243.334548 
L 650.937232 232.637014 
L 652.290375 236.696443 
L 620.197774 247.393977 
z
" clip-path="url(#p978594a559)" style="fill: #ffe55c; opacity: 0.72; stroke: #d5b600; stroke-linejoin: miter"/>
   </g>
   <g id="patch_84">
    <path d="M 649.700171 235.623545 
L 634.723623 205.670451 
L 638.550889 203.756818 
L 653.527437 233.709912 
z
" clip-path="url(#p978594a559)" style="fill: #ffe55c; opacity: 0.72; stroke: #d5b600; stroke-linejoin: miter"/>
   </g>
   <g id="patch_85">
    <path d="M 526.059477 78.592529 
L 558.152078 89.290062 
L 556.798935 93.349491 
L 524.706334 82.651957 
z
" clip-path="url(#p978594a559)" style="fill: #ffe55c; opacity: 0.72; stroke: #d5b600; stroke-linejoin: miter"/>
   </g>
   <g id="patch_86">
    <path d="M 558.489847 89.436003 
L 586.303434 104.41255 
L 584.274755 108.180098 
L 556.461167 93.20355 
z
" clip-path="url(#p978594a559)" style="fill: #ffe55c; opacity: 0.72; stroke: #d5b600; stroke-linejoin: miter"/>
   </g>
   <g id="patch_87">
    <path d="M 586.040325 104.293041 
L 620.272433 117.130082 
L 618.769971 121.136647 
L 584.537863 108.299606 
z
" clip-path="url(#p978594a559)" style="fill: #ffe55c; opacity: 0.72; stroke: #d5b600; stroke-linejoin: miter"/>
   </g>
   <g id="patch_88">
    <path d="M 620.011234 117.050732 
L 656.382848 125.608759 
L 655.402786 129.774024 
L 619.031171 121.215997 
z
" clip-path="url(#p978594a559)" style="fill: #ffe55c; opacity: 0.72; stroke: #d5b600; stroke-linejoin: miter"/>
   </g>
   <g id="patch_89">
    <path d="M 654.706032 125.911214 
L 673.961593 113.074174 
L 676.335163 116.634528 
L 657.079602 129.471569 
z
" clip-path="url(#p978594a559)" style="fill: #ffe55c; opacity: 0.72; stroke: #d5b600; stroke-linejoin: miter"/>
   </g>
   <g id="patch_90">
    <path d="M 673.161896 114.059758 
L 690.27795 71.269623 
L 694.250914 72.858809 
L 677.13486 115.648944 
z
" clip-path="url(#p978594a559)" style="fill: #ffe55c; opacity: 0.72; stroke: #d5b600; stroke-linejoin: miter"/>
   </g>
   <g id="patch_91">
    <path d="M 694.267714 72.815447 
L 681.430674 107.047555 
L 677.424109 105.545093 
L 690.261149 71.312985 
z
" clip-path="url(#p978594a559)" style="fill: #ffe55c; opacity: 0.72; stroke: #d5b600; stroke-linejoin: miter"/>
   </g>
   <g id="patch_92">
    <path d="M 681.1753 107.530141 
L 655.501219 143.901756 
L 652.005402 141.434121 
L 677.679483 105.062506 
z
" clip-path="url(#p978594a559)" style="fill: #ffe55c; opacity: 0.72; stroke: #d5b600; stroke-linejoin: miter"/>
   </g>
   <g id="patch_93">
    <path d="M 655.719827 143.510732 
L 642.882787 173.463826 
L 638.949753 171.77824 
L 651.786793 141.825146 
z
" clip-path="url(#p978594a559)" style="fill: #ffe55c; opacity: 0.72; stroke: #d5b600; stroke-linejoin: miter"/>
   </g>
   <g id="patch_94">
    <path d="M 643.037009 172.903798 
L 638.757995 204.996399 
L 634.516518 204.430869 
L 638.795531 172.338268 
z
" clip-path="url(#p978594a559)" style="fill: #ffe55c; opacity: 0.72; stroke: #d5b600; stroke-linejoin: miter"/>
   </g>
   <g id="patch_95">
    <path d="M 638.348862 203.42993 
L 657.604423 229.104011 
L 654.181212 231.671419 
L 634.925651 205.997338 
z
" clip-path="url(#p978594a559)" style="fill: #ffe55c; opacity: 0.72; stroke: #d5b600; stroke-linejoin: miter"/>
   </g>
   <g id="patch_96">
    <path d="M 656.654472 228.388372 
L 701.584113 245.504426 
L 700.060804 249.503112 
L 655.131163 232.387058 
z
" clip-path="url(#p978594a559)" style="fill: #ffe55c; opacity: 0.72; stroke: #d5b600; stroke-linejoin: miter"/>
   </g>
   <g id="patch_97">
    <path d="M 647.355901 201.818295 
C 676.860899 201.818295 705.161422 190.095835 726.024607 169.232651 
C 746.887791 148.369466 758.610251 120.068943 758.610251 90.563945 
C 758.610251 61.058946 746.887791 32.758423 726.024607 11.895239 
C 705.161422 -8.967946 676.860899 -20.690406 647.355901 -20.690406 
C 617.850902 -20.690406 589.550379 -8.967946 568.687195 11.895239 
C 547.82401 32.758423 536.10155 61.058946 536.10155 90.563945 
C 536.10155 120.068943 547.82401 148.369466 568.687195 169.232651 
C 589.550379 190.095835 617.850902 201.818295 647.355901 201.818295 
L 647.355901 201.818295 
z
" clip-path="url(#p978594a559)" style="fill: none; opacity: 0.42; stroke-dasharray: 0.95,1.5675; stroke-dashoffset: 0; stroke: #e63232; stroke-width: 0.95; stroke-linejoin: miter"/>
   </g>
   <g id="patch_98">
    <path d="M 493.764377 253.364353 
C 523.269376 253.364353 551.569899 241.641892 572.433083 220.778708 
C 593.296268 199.915523 605.018728 171.615001 605.018728 142.110002 
C 605.018728 112.605003 593.296268 84.304481 572.433083 63.441296 
C 551.569899 42.578111 523.269376 30.855651 493.764377 30.855651 
C 464.259379 30.855651 435.958856 42.578111 415.095671 63.441296 
C 394.232487 84.304481 382.510026 112.605003 382.510026 142.110002 
C 382.510026 171.615001 394.232487 199.915523 415.095671 220.778708 
C 435.958856 241.641892 464.259379 253.364353 493.764377 253.364353 
L 493.764377 253.364353 
z
" clip-path="url(#p978594a559)" style="fill: none; opacity: 0.42; stroke-dasharray: 0.95,1.5675; stroke-dashoffset: 0; stroke: #e63232; stroke-width: 0.95; stroke-linejoin: miter"/>
   </g>
   <g id="patch_99">
    <path d="M 445.800947 110.737662 
L 492.870095 110.737662 
L 492.870095 76.505554 
L 445.800947 76.505554 
z
" clip-path="url(#p978594a559)" style="fill: #4e79a7; opacity: 0.93; stroke: #1f2937; stroke-width: 1.35; stroke-linejoin: miter"/>
   </g>
   <g id="patch_100">
    <path d="M 640.93738 96.982465 
L 653.774421 96.982465 
L 653.774421 84.145424 
L 640.93738 84.145424 
z
" clip-path="url(#p978594a559)" style="fill: #e15759; opacity: 0.93; stroke: #1f2937; stroke-width: 0.65; stroke-linejoin: miter"/>
   </g>
   <g id="patch_101">
    <path d="M 487.345857 148.528522 
L 500.182898 148.528522 
L 500.182898 135.691482 
L 487.345857 135.691482 
z
" clip-path="url(#p978594a559)" style="fill: #e15759; opacity: 0.93; stroke: #1f2937; stroke-width: 0.65; stroke-linejoin: miter"/>
   </g>
   <g id="patch_102">
    <path d="M 673.520185 203.547304 
L 684.217719 203.547304 
L 684.217719 186.43125 
L 673.520185 186.43125 
z
" clip-path="url(#p978594a559)" style="fill: #59a14f; opacity: 0.93; stroke: #1f2937; stroke-width: 0.65; stroke-linejoin: miter"/>
   </g>
   <g id="patch_103">
    <path d="M 470.947407 140.165553 
L 481.64494 140.165553 
L 481.64494 123.049499 
L 470.947407 123.049499 
z
" clip-path="url(#p978594a559)" style="fill: #59a14f; opacity: 0.93; stroke: #1f2937; stroke-width: 0.65; stroke-linejoin: miter"/>
   </g>
   <g id="patch_104">
    <path d="M 444.096534 238.463793 
L 454.794068 238.463793 
L 454.794068 221.347739 
L 444.096534 221.347739 
z
" clip-path="url(#p978594a559)" style="fill: #59a14f; opacity: 0.93; stroke: #1f2937; stroke-width: 0.65; stroke-linejoin: miter"/>
   </g>
   <g id="patch_105">
    <path d="M 596.879511 143.681688 
L 607.577044 143.681688 
L 607.577044 126.565634 
L 596.879511 126.565634 
z
" clip-path="url(#p978594a559)" style="fill: #59a14f; opacity: 0.93; stroke: #1f2937; stroke-width: 0.65; stroke-linejoin: miter"/>
   </g>
   <g id="patch_106">
    <path d="M 681.262592 169.390685 
L 698.378646 169.390685 
L 698.378646 158.693151 
L 681.262592 158.693151 
z
" clip-path="url(#p978594a559)" style="fill: #59a14f; opacity: 0.93; stroke: #1f2937; stroke-width: 0.65; stroke-linejoin: miter"/>
   </g>
   <g id="patch_107">
    <path d="M 603.284039 190.758269 
L 613.981573 190.758269 
L 613.981573 173.642215 
L 603.284039 173.642215 
z
" clip-path="url(#p978594a559)" style="fill: #59a14f; opacity: 0.93; stroke: #1f2937; stroke-width: 0.65; stroke-linejoin: miter"/>
   </g>
   <g id="patch_108">
    <path d="M 599.726938 162.818641 
L 616.842992 162.818641 
L 616.842992 152.121108 
L 599.726938 152.121108 
z
" clip-path="url(#p978594a559)" style="fill: #59a14f; opacity: 0.93; stroke: #1f2937; stroke-width: 0.65; stroke-linejoin: miter"/>
   </g>
   <g id="patch_109">
    <path d="M 639.237333 117.688304 
L 649.934867 117.688304 
L 649.934867 100.57225 
L 639.237333 100.57225 
z
" clip-path="url(#p978594a559)" style="fill: #59a14f; opacity: 0.93; stroke: #1f2937; stroke-width: 0.65; stroke-linejoin: miter"/>
   </g>
   <g id="patch_110">
    <path d="M 455.630407 133.852332 
L 466.32794 133.852332 
L 466.32794 116.736278 
L 455.630407 116.736278 
z
" clip-path="url(#p978594a559)" style="fill: #59a14f; opacity: 0.93; stroke: #1f2937; stroke-width: 0.65; stroke-linejoin: miter"/>
   </g>
   <g id="patch_111">
    <path d="M 517.949967 250.858456 
L 528.647501 250.858456 
L 528.647501 233.742402 
L 517.949967 233.742402 
z
" clip-path="url(#p978594a559)" style="fill: #59a14f; opacity: 0.93; stroke: #1f2937; stroke-width: 0.65; stroke-linejoin: miter"/>
   </g>
   <g id="patch_112">
    <path d="M 536.266262 264.324379 
L 546.963795 264.324379 
L 546.963795 247.208325 
L 536.266262 247.208325 
z
" clip-path="url(#p978594a559)" style="fill: #af7aa1; opacity: 0.93; stroke: #1f2937; stroke-width: 0.65; stroke-linejoin: miter"/>
   </g>
   <g id="patch_113">
    <path d="M 563.938478 258.246315 
L 581.054532 258.246315 
L 581.054532 247.548781 
L 563.938478 247.548781 
z
" clip-path="url(#p978594a559)" style="fill: #af7aa1; opacity: 0.93; stroke: #1f2937; stroke-width: 0.65; stroke-linejoin: miter"/>
   </g>
   <g id="patch_114">
    <path d="M 579.683753 275.959209 
L 596.799807 275.959209 
L 596.799807 265.261675 
L 579.683753 265.261675 
z
" clip-path="url(#p978594a559)" style="fill: #af7aa1; opacity: 0.93; stroke: #1f2937; stroke-width: 0.65; stroke-linejoin: miter"/>
   </g>
   <g id="patch_115">
    <path d="M 610.197546 268.314044 
L 620.89508 268.314044 
L 620.89508 251.19799 
L 610.197546 251.19799 
z
" clip-path="url(#p978594a559)" style="fill: #af7aa1; opacity: 0.93; stroke: #1f2937; stroke-width: 0.65; stroke-linejoin: miter"/>
   </g>
   <g id="patch_116">
    <path d="M 535.967748 219.232312 
L 553.083802 219.232312 
L 553.083802 208.534779 
L 535.967748 208.534779 
z
" clip-path="url(#p978594a559)" style="fill: #af7aa1; opacity: 0.93; stroke: #1f2937; stroke-width: 0.65; stroke-linejoin: miter"/>
   </g>
   <g id="patch_117">
    <path d="M 623.640074 271.108027 
L 634.337608 271.108027 
L 634.337608 256.13148 
L 623.640074 256.13148 
z
" clip-path="url(#p978594a559)" style="fill: #ff9d9a; opacity: 0.93; stroke: #1f2937; stroke-width: 0.65; stroke-linejoin: miter"/>
   </g>
   <g id="patch_118">
    <path d="M 588.540495 259.356092 
L 603.517042 259.356092 
L 603.517042 248.658558 
L 588.540495 248.658558 
z
" clip-path="url(#p978594a559)" style="fill: #ff9d9a; opacity: 0.93; stroke: #1f2937; stroke-width: 0.65; stroke-linejoin: miter"/>
   </g>
   <g id="patch_119">
    <path d="M 487.066034 131.306111 
L 502.042581 131.306111 
L 502.042581 120.608577 
L 487.066034 120.608577 
z
" clip-path="url(#p978594a559)" style="fill: #ff9d9a; opacity: 0.93; stroke: #1f2937; stroke-width: 0.65; stroke-linejoin: miter"/>
   </g>
   <g id="patch_120">
    <path d="M 627.288297 142.633294 
L 637.985831 142.633294 
L 637.985831 127.656747 
L 627.288297 127.656747 
z
" clip-path="url(#p978594a559)" style="fill: #ff9d9a; opacity: 0.93; stroke: #1f2937; stroke-width: 0.65; stroke-linejoin: miter"/>
   </g>
   <g id="line2d_4">
    <path d="M 405.570528 187.59758 
" clip-path="url(#p978594a559)" style="fill: none; stroke: #f4c430; stroke-width: 1.5; stroke-linecap: square"/>
    <g clip-path="url(#p978594a559)">
     <use xlink:href="#m48e1c5f40b" x="405.570528" y="187.59758" style="fill: #f4c430; stroke: #8a5a00; stroke-width: 0.7; stroke-linejoin: bevel"/>
    </g>
   </g>
   <g id="line2d_5">
    <path d="M 668.729858 42.111121 
" clip-path="url(#p978594a559)" style="fill: none; stroke: #f4c430; stroke-width: 1.5; stroke-linecap: square"/>
    <g clip-path="url(#p978594a559)">
     <use xlink:href="#m48e1c5f40b" x="668.729858" y="42.111121" style="fill: #f4c430; stroke: #8a5a00; stroke-width: 0.7; stroke-linejoin: bevel"/>
    </g>
   </g>
   <g id="line2d_6">
    <path d="M 673.008871 275.317357 
" clip-path="url(#p978594a559)" style="fill: none; stroke: #f4c430; stroke-width: 1.5; stroke-linecap: square"/>
    <g clip-path="url(#p978594a559)">
     <use xlink:href="#m48e1c5f40b" x="673.008871" y="275.317357" style="fill: #f4c430; stroke: #8a5a00; stroke-width: 0.7; stroke-linejoin: bevel"/>
    </g>
   </g>
   <g id="text_2">
    <!-- Phase 2 -->
    <g style="fill: #111827" transform="translate(382.035953 22.655815) scale(0.11 -0.11)">
     <defs>
      <path id="DejaVuSans-Bold-32" d="M 1844 884 
L 3897 884 
L 3897 0 
L 506 0 
L 506 884 
L 2209 2388 
Q 2438 2594 2547 2791 
Q 2656 2988 2656 3200 
Q 2656 3528 2436 3728 
Q 2216 3928 1850 3928 
Q 1569 3928 1234 3808 
Q 900 3688 519 3450 
L 519 4475 
Q 925 4609 1322 4679 
Q 1719 4750 2100 4750 
Q 2938 4750 3402 4381 
Q 3866 4013 3866 3353 
Q 3866 2972 3669 2642 
Q 3472 2313 2841 1759 
L 1844 884 
z
" transform="scale(0.015625)"/>
     </defs>
     <use xlink:href="#DejaVuSans-Bold-50"/>
     <use xlink:href="#DejaVuSans-Bold-68" transform="translate(73.291016 0)"/>
     <use xlink:href="#DejaVuSans-Bold-61" transform="translate(144.482422 0)"/>
     <use xlink:href="#DejaVuSans-Bold-73" transform="translate(211.962891 0)"/>
     <use xlink:href="#DejaVuSans-Bold-65" transform="translate(271.484375 0)"/>
     <use xlink:href="#DejaVuSans-Bold-20" transform="translate(339.306641 0)"/>
     <use xlink:href="#DejaVuSans-Bold-32" transform="translate(374.121094 0)"/>
    </g>
   </g>
  </g>
  <g id="axes_3">
   <g id="patch_121">
    <path d="M 747.634866 311.688972 
L 1107.072 311.688972 
L 1107.072 3.6 
L 747.634866 3.6 
z
" style="fill: #ffffff"/>
   </g>
   <g id="patch_122">
    <path d="M 781.866974 217.550675 
L 820.378096 243.224756 
L 880.284285 256.061796 
L 953.027514 281.735877 
L 1025.770744 294.572918 
L 1068.560879 260.34081 
L 1089.955946 200.434621 
L 1077.118906 136.249418 
L 1064.281865 72.064216 
L 1017.212717 20.716054 
L 965.864555 46.390135 
L 918.795406 80.622243 
L 867.447244 67.785202 
L 820.378096 54.948162 
L 807.541055 110.575337 
L 773.308947 153.365472 
z
" clip-path="url(#p848e1e63d7)" style="fill: #fff2e6; opacity: 0.58; stroke: #e15759; stroke-width: 1.8; stroke-linejoin: miter"/>
   </g>
   <g id="matplotlib.axis_5"/>
   <g id="matplotlib.axis_6"/>
   <g id="patch_123">
    <path d="M 900.439671 156.987695 
L 951.787833 156.987695 
L 951.787833 92.802493 
L 900.439671 92.802493 
z
" clip-path="url(#p848e1e63d7)" style="fill: url(#h82bec472cb); opacity: 0.18; stroke: #111827; stroke-width: 1.1; stroke-linejoin: miter"/>
   </g>
   <g id="patch_124">
    <path d="M 933.429745 247.224393 
L 997.614947 247.224393 
L 997.614947 195.876231 
L 933.429745 195.876231 
z
" clip-path="url(#p848e1e63d7)" style="fill: url(#h82bec472cb); opacity: 0.18; stroke: #111827; stroke-width: 1.1; stroke-linejoin: miter"/>
   </g>
   <g id="patch_125">
    <path d="M 809.260353 119.295689 
L 873.445555 119.295689 
L 873.445555 67.947527 
L 809.260353 67.947527 
z
" clip-path="url(#p848e1e63d7)" style="fill: url(#h82bec472cb); opacity: 0.18; stroke: #111827; stroke-width: 1.1; stroke-linejoin: miter"/>
   </g>
   <g id="patch_126">
    <path d="M 774.625567 151.390543 
L 800.299648 140.693009 
L 801.945422 144.642868 
L 776.271341 155.340402 
z
" clip-path="url(#p848e1e63d7)" style="fill: #ffe55c; opacity: 0.72; stroke: #d5b600; stroke-linejoin: miter"/>
   </g>
   <g id="patch_127">
    <path d="M 801.873766 140.664656 
L 836.105874 153.501696 
L 834.603412 157.508262 
L 800.371304 144.671221 
z
" clip-path="url(#p848e1e63d7)" style="fill: #ffe55c; opacity: 0.72; stroke: #d5b600; stroke-linejoin: miter"/>
   </g>
   <g id="patch_128">
    <path d="M 835.688326 153.391654 
L 876.338954 159.810174 
L 875.671588 164.036825 
L 835.02096 157.618305 
z
" clip-path="url(#p848e1e63d7)" style="fill: #ffe55c; opacity: 0.72; stroke: #d5b600; stroke-linejoin: miter"/>
   </g>
   <g id="patch_129">
    <path d="M 779.727468 196.155607 
L 807.541055 196.155607 
L 807.541055 200.434621 
L 779.727468 200.434621 
z
" clip-path="url(#p848e1e63d7)" style="fill: #ffe55c; opacity: 0.72; stroke: #d5b600; stroke-linejoin: miter"/>
   </g>
   <g id="patch_130">
    <path d="M 807.693489 196.161044 
L 837.646583 198.300551 
L 837.341716 202.56869 
L 807.388622 200.429184 
z
" clip-path="url(#p848e1e63d7)" style="fill: #ffe55c; opacity: 0.72; stroke: #d5b600; stroke-linejoin: miter"/>
   </g>
   <g id="patch_131">
    <path d="M 837.281261 198.305732 
L 858.676328 196.166225 
L 859.102106 200.424003 
L 837.707039 202.56351 
z
" clip-path="url(#p848e1e63d7)" style="fill: #ffe55c; opacity: 0.72; stroke: #d5b600; stroke-linejoin: miter"/>
   </g>
   <g id="patch_132">
    <path d="M 857.10904 197.108329 
L 865.667067 184.271289 
L 869.227422 186.644858 
L 860.669395 199.481899 
z
" clip-path="url(#p848e1e63d7)" style="fill: #ffe55c; opacity: 0.72; stroke: #d5b600; stroke-linejoin: miter"/>
   </g>
   <g id="patch_133">
    <path d="M 865.383126 184.895132 
L 871.801646 161.360558 
L 875.929883 162.486441 
L 869.511363 186.021015 
z
" clip-path="url(#p848e1e63d7)" style="fill: #ffe55c; opacity: 0.72; stroke: #d5b600; stroke-linejoin: miter"/>
   </g>
   <g id="patch_134">
    <path d="M 871.755368 161.571767 
L 878.173888 123.060645 
L 882.394681 123.764111 
L 875.976161 162.275232 
z
" clip-path="url(#p848e1e63d7)" style="fill: #ffe55c; opacity: 0.72; stroke: #d5b600; stroke-linejoin: miter"/>
   </g>
   <g id="patch_135">
    <path d="M 878.297803 122.617785 
L 895.413857 79.82765 
L 899.386821 81.416836 
L 882.270767 124.206971 
z
" clip-path="url(#p848e1e63d7)" style="fill: #ffe55c; opacity: 0.72; stroke: #d5b600; stroke-linejoin: miter"/>
   </g>
   <g id="patch_136">
    <path d="M 858.600142 196.175226 
L 905.66929 189.756706 
L 906.247441 193.996482 
L 859.178293 200.415002 
z
" clip-path="url(#p848e1e63d7)" style="fill: #ffe55c; opacity: 0.72; stroke: #d5b600; stroke-linejoin: miter"/>
   </g>
   <g id="patch_137">
    <path d="M 905.958366 189.737087 
L 953.027514 189.737087 
L 953.027514 194.016101 
L 905.958366 194.016101 
z
" clip-path="url(#p848e1e63d7)" style="fill: #ffe55c; opacity: 0.72; stroke: #d5b600; stroke-linejoin: miter"/>
   </g>
   <g id="patch_138">
    <path d="M 953.292887 189.753609 
L 987.524995 194.032622 
L 986.994249 198.278592 
L 952.762141 193.999579 
z
" clip-path="url(#p848e1e63d7)" style="fill: #ffe55c; opacity: 0.72; stroke: #d5b600; stroke-linejoin: miter"/>
   </g>
   <g id="patch_139">
    <path d="M 988.054215 194.169125 
L 1009.449282 202.727152 
L 1007.860097 206.700116 
L 986.465029 198.142089 
z
" clip-path="url(#p848e1e63d7)" style="fill: #ffe55c; opacity: 0.72; stroke: #d5b600; stroke-linejoin: miter"/>
   </g>
   <g id="patch_140">
    <path d="M 860.855734 197.452321 
L 867.274255 212.428868 
L 863.341221 214.114454 
L 856.9227 199.137907 
z
" clip-path="url(#p848e1e63d7)" style="fill: #ffe55c; opacity: 0.72; stroke: #d5b600; stroke-linejoin: miter"/>
   </g>
   <g id="patch_141">
    <path d="M 866.212504 211.332876 
L 898.305105 226.309424 
L 896.495572 230.186993 
L 864.402971 215.210446 
z
" clip-path="url(#p848e1e63d7)" style="fill: #ffe55c; opacity: 0.72; stroke: #d5b600; stroke-linejoin: miter"/>
   </g>
   <g id="patch_142">
    <path d="M 898.107126 226.228817 
L 940.897261 241.205364 
L 939.483687 245.244147 
L 896.693552 230.2676 
z
" clip-path="url(#p848e1e63d7)" style="fill: #ffe55c; opacity: 0.72; stroke: #d5b600; stroke-linejoin: miter"/>
   </g>
   <g id="patch_143">
    <path d="M 940.279543 241.087104 
L 991.627704 243.22661 
L 991.449567 247.501914 
L 940.101405 245.362408 
z
" clip-path="url(#p848e1e63d7)" style="fill: #ffe55c; opacity: 0.72; stroke: #d5b600; stroke-linejoin: miter"/>
   </g>
   <g id="patch_144">
    <path d="M 990.862064 243.334548 
L 1022.954665 232.637014 
L 1024.307808 236.696443 
L 992.215207 247.393977 
z
" clip-path="url(#p848e1e63d7)" style="fill: #ffe55c; opacity: 0.72; stroke: #d5b600; stroke-linejoin: miter"/>
   </g>
   <g id="patch_145">
    <path d="M 1021.717604 235.623545 
L 1006.741057 205.670451 
L 1010.568323 203.756818 
L 1025.54487 233.709912 
z
" clip-path="url(#p848e1e63d7)" style="fill: #ffe55c; opacity: 0.72; stroke: #d5b600; stroke-linejoin: miter"/>
   </g>
   <g id="patch_146">
    <path d="M 898.07691 78.592529 
L 930.169511 89.290062 
L 928.816369 93.349491 
L 896.723767 82.651957 
z
" clip-path="url(#p848e1e63d7)" style="fill: #ffe55c; opacity: 0.72; stroke: #d5b600; stroke-linejoin: miter"/>
   </g>
   <g id="patch_147">
    <path d="M 930.50728 89.436003 
L 958.320867 104.41255 
L 956.292188 108.180098 
L 928.4786 93.20355 
z
" clip-path="url(#p848e1e63d7)" style="fill: #ffe55c; opacity: 0.72; stroke: #d5b600; stroke-linejoin: miter"/>
   </g>
   <g id="patch_148">
    <path d="M 958.057759 104.293041 
L 992.289867 117.130082 
L 990.787405 121.136647 
L 956.555297 108.299606 
z
" clip-path="url(#p848e1e63d7)" style="fill: #ffe55c; opacity: 0.72; stroke: #d5b600; stroke-linejoin: miter"/>
   </g>
   <g id="patch_149">
    <path d="M 992.028667 117.050732 
L 1028.400282 125.608759 
L 1027.420219 129.774024 
L 991.048604 121.215997 
z
" clip-path="url(#p848e1e63d7)" style="fill: #ffe55c; opacity: 0.72; stroke: #d5b600; stroke-linejoin: miter"/>
   </g>
   <g id="patch_150">
    <path d="M 1026.723466 125.911214 
L 1045.979026 113.074174 
L 1048.352596 116.634528 
L 1029.097035 129.471569 
z
" clip-path="url(#p848e1e63d7)" style="fill: #ffe55c; opacity: 0.72; stroke: #d5b600; stroke-linejoin: miter"/>
   </g>
   <g id="patch_151">
    <path d="M 1045.179329 114.059758 
L 1062.295383 71.269623 
L 1066.268347 72.858809 
L 1049.152293 115.648944 
z
" clip-path="url(#p848e1e63d7)" style="fill: #ffe55c; opacity: 0.72; stroke: #d5b600; stroke-linejoin: miter"/>
   </g>
   <g id="patch_152">
    <path d="M 1066.285148 72.815447 
L 1053.448107 107.047555 
L 1049.441542 105.545093 
L 1062.278582 71.312985 
z
" clip-path="url(#p848e1e63d7)" style="fill: #ffe55c; opacity: 0.72; stroke: #d5b600; stroke-linejoin: miter"/>
   </g>
   <g id="patch_153">
    <path d="M 1053.192733 107.530141 
L 1027.518652 143.901756 
L 1024.022835 141.434121 
L 1049.696916 105.062506 
z
" clip-path="url(#p848e1e63d7)" style="fill: #ffe55c; opacity: 0.72; stroke: #d5b600; stroke-linejoin: miter"/>
   </g>
   <g id="patch_154">
    <path d="M 1027.737261 143.510732 
L 1014.90022 173.463826 
L 1010.967186 171.77824 
L 1023.804227 141.825146 
z
" clip-path="url(#p848e1e63d7)" style="fill: #ffe55c; opacity: 0.72; stroke: #d5b600; stroke-linejoin: miter"/>
   </g>
   <g id="patch_155">
    <path d="M 1015.054442 172.903798 
L 1010.775428 204.996399 
L 1006.533951 204.430869 
L 1010.812964 172.338268 
z
" clip-path="url(#p848e1e63d7)" style="fill: #ffe55c; opacity: 0.72; stroke: #d5b600; stroke-linejoin: miter"/>
   </g>
   <g id="patch_156">
    <path d="M 1010.366295 203.42993 
L 1029.621856 229.104011 
L 1026.198645 231.671419 
L 1006.943084 205.997338 
z
" clip-path="url(#p848e1e63d7)" style="fill: #ffe55c; opacity: 0.72; stroke: #d5b600; stroke-linejoin: miter"/>
   </g>
   <g id="patch_157">
    <path d="M 1028.671905 228.388372 
L 1073.601546 245.504426 
L 1072.078238 249.503112 
L 1027.148596 232.387058 
z
" clip-path="url(#p848e1e63d7)" style="fill: #ffe55c; opacity: 0.72; stroke: #d5b600; stroke-linejoin: miter"/>
   </g>
   <g id="patch_158">
    <path d="M 1030.843562 326.729472 
C 1060.348561 326.729472 1088.649084 315.007012 1109.512268 294.143827 
C 1130.375453 273.280643 1142.097913 244.98012 1142.097913 215.475121 
C 1142.097913 185.970123 1130.375453 157.6696 1109.512268 136.806416 
C 1088.649084 115.943231 1060.348561 104.220771 1030.843562 104.220771 
C 1001.338564 104.220771 973.038041 115.943231 952.174856 136.806416 
C 931.311672 157.6696 919.589212 185.970123 919.589212 215.475121 
C 919.589212 244.98012 931.311672 273.280643 952.174856 294.143827 
C 973.038041 315.007012 1001.338564 326.729472 1030.843562 326.729472 
" clip-path="url(#p848e1e63d7)" style="fill: none; opacity: 0.42; stroke-dasharray: 0.95,1.5675; stroke-dashoffset: 0; stroke: #e63232; stroke-width: 0.95; stroke-linejoin: miter"/>
   </g>
   <g id="patch_159">
    <path d="M 975.850187 189.092499 
C 1005.355186 189.092499 1033.655709 177.370039 1054.518893 156.506854 
C 1075.382078 135.64367 1087.104538 107.343147 1087.104538 77.838148 
C 1087.104538 48.33315 1075.382078 20.032627 1054.518893 -0.830558 
C 1033.655709 -21.693742 1005.355186 -33.416203 975.850187 -33.416203 
C 946.345189 -33.416203 918.044666 -21.693742 897.181481 -0.830558 
C 876.318297 20.032627 864.595836 48.33315 864.595836 77.838148 
C 864.595836 107.343147 876.318297 135.64367 897.181481 156.506854 
C 918.044666 177.370039 946.345189 189.092499 975.850187 189.092499 
L 975.850187 189.092499 
z
" clip-path="url(#p848e1e63d7)" style="fill: none; opacity: 0.42; stroke-dasharray: 0.95,1.5675; stroke-dashoffset: 0; stroke: #e63232; stroke-width: 0.95; stroke-linejoin: miter"/>
   </g>
   <g id="patch_160">
    <path d="M 987.157531 96.079712 
L 1034.226679 96.079712 
L 1034.226679 61.847604 
L 987.157531 61.847604 
z
" clip-path="url(#p848e1e63d7)" style="fill: #4e79a7; opacity: 0.93; stroke: #1f2937; stroke-width: 1.35; stroke-linejoin: miter"/>
   </g>
   <g id="patch_161">
    <path d="M 1024.425042 221.893642 
L 1037.262083 221.893642 
L 1037.262083 209.056601 
L 1024.425042 209.056601 
z
" clip-path="url(#p848e1e63d7)" style="fill: #e15759; opacity: 0.93; stroke: #1f2937; stroke-width: 0.65; stroke-linejoin: miter"/>
   </g>
   <g id="patch_162">
    <path d="M 969.431667 84.256669 
L 982.268708 84.256669 
L 982.268708 71.419628 
L 969.431667 71.419628 
z
" clip-path="url(#p848e1e63d7)" style="fill: #e15759; opacity: 0.93; stroke: #1f2937; stroke-width: 0.65; stroke-linejoin: miter"/>
   </g>
   <g id="patch_163">
    <path d="M 962.921131 170.203903 
L 973.618665 170.203903 
L 973.618665 153.087849 
L 962.921131 153.087849 
z
" clip-path="url(#p848e1e63d7)" style="fill: #59a14f; opacity: 0.93; stroke: #1f2937; stroke-width: 0.65; stroke-linejoin: miter"/>
   </g>
   <g id="patch_164">
    <path d="M 985.051436 166.223427 
L 1002.16749 166.223427 
L 1002.16749 155.525893 
L 985.051436 155.525893 
z
" clip-path="url(#p848e1e63d7)" style="fill: #59a14f; opacity: 0.93; stroke: #1f2937; stroke-width: 0.65; stroke-linejoin: miter"/>
   </g>
   <g id="patch_165">
    <path d="M 975.893968 150.058186 
L 993.010022 150.058186 
L 993.010022 139.360652 
L 975.893968 139.360652 
z
" clip-path="url(#p848e1e63d7)" style="fill: #59a14f; opacity: 0.93; stroke: #1f2937; stroke-width: 0.65; stroke-linejoin: miter"/>
   </g>
   <g id="patch_166">
    <path d="M 973.646072 189.170215 
L 990.762126 189.170215 
L 990.762126 178.472682 
L 973.646072 178.472682 
z
" clip-path="url(#p848e1e63d7)" style="fill: #59a14f; opacity: 0.93; stroke: #1f2937; stroke-width: 0.65; stroke-linejoin: miter"/>
   </g>
   <g id="patch_167">
    <path d="M 966.570772 105.535454 
L 983.686826 105.535454 
L 983.686826 94.83792 
L 966.570772 94.83792 
z
" clip-path="url(#p848e1e63d7)" style="fill: #59a14f; opacity: 0.93; stroke: #1f2937; stroke-width: 0.65; stroke-linejoin: miter"/>
   </g>
   <g id="patch_168">
    <path d="M 1039.639448 205.615132 
L 1056.755502 205.615132 
L 1056.755502 194.917598 
L 1039.639448 194.917598 
z
" clip-path="url(#p848e1e63d7)" style="fill: #59a14f; opacity: 0.93; stroke: #1f2937; stroke-width: 0.65; stroke-linejoin: miter"/>
   </g>
   <g id="patch_169">
    <path d="M 910.563482 172.513923 
L 927.679536 172.513923 
L 927.679536 161.816389 
L 910.563482 161.816389 
z
" clip-path="url(#p848e1e63d7)" style="fill: #59a14f; opacity: 0.93; stroke: #1f2937; stroke-width: 0.65; stroke-linejoin: miter"/>
   </g>
   <g id="patch_170">
    <path d="M 794.649439 164.238607 
L 811.765493 164.238607 
L 811.765493 153.541074 
L 794.649439 153.541074 
z
" clip-path="url(#p848e1e63d7)" style="fill: #59a14f; opacity: 0.93; stroke: #1f2937; stroke-width: 0.65; stroke-linejoin: miter"/>
   </g>
   <g id="patch_171">
    <path d="M 936.297276 171.796935 
L 953.41333 171.796935 
L 953.41333 161.099401 
L 936.297276 161.099401 
z
" clip-path="url(#p848e1e63d7)" style="fill: #59a14f; opacity: 0.93; stroke: #1f2937; stroke-width: 0.65; stroke-linejoin: miter"/>
   </g>
   <g id="patch_172">
    <path d="M 1028.533945 191.848701 
L 1039.231479 191.848701 
L 1039.231479 174.732647 
L 1028.533945 174.732647 
z
" clip-path="url(#p848e1e63d7)" style="fill: #59a14f; opacity: 0.93; stroke: #1f2937; stroke-width: 0.65; stroke-linejoin: miter"/>
   </g>
   <g id="patch_173">
    <path d="M 796.451632 221.002723 
L 807.149166 221.002723 
L 807.149166 203.886669 
L 796.451632 203.886669 
z
" clip-path="url(#p848e1e63d7)" style="fill: #af7aa1; opacity: 0.93; stroke: #1f2937; stroke-width: 0.65; stroke-linejoin: miter"/>
   </g>
   <g id="patch_174">
    <path d="M 845.587704 146.383237 
L 862.703758 146.383237 
L 862.703758 135.685704 
L 845.587704 135.685704 
z
" clip-path="url(#p848e1e63d7)" style="fill: #af7aa1; opacity: 0.93; stroke: #1f2937; stroke-width: 0.65; stroke-linejoin: miter"/>
   </g>
   <g id="patch_175">
    <path d="M 825.011414 196.94699 
L 842.127468 196.94699 
L 842.127468 186.249456 
L 825.011414 186.249456 
z
" clip-path="url(#p848e1e63d7)" style="fill: #af7aa1; opacity: 0.93; stroke: #1f2937; stroke-width: 0.65; stroke-linejoin: miter"/>
   </g>
   <g id="patch_176">
    <path d="M 1057.435443 185.692596 
L 1074.551497 185.692596 
L 1074.551497 174.995062 
L 1057.435443 174.995062 
z
" clip-path="url(#p848e1e63d7)" style="fill: #af7aa1; opacity: 0.93; stroke: #1f2937; stroke-width: 0.65; stroke-linejoin: miter"/>
   </g>
   <g id="patch_177">
    <path d="M 1028.397205 162.627661 
L 1039.094739 162.627661 
L 1039.094739 145.511607 
L 1028.397205 145.511607 
z
" clip-path="url(#p848e1e63d7)" style="fill: #af7aa1; opacity: 0.93; stroke: #1f2937; stroke-width: 0.65; stroke-linejoin: miter"/>
   </g>
   <g id="patch_178">
    <path d="M 1059.57495 138.439633 
L 1074.551497 138.439633 
L 1074.551497 127.7421 
L 1059.57495 127.7421 
z
" clip-path="url(#p848e1e63d7)" style="fill: #ff9d9a; opacity: 0.93; stroke: #1f2937; stroke-width: 0.65; stroke-linejoin: miter"/>
   </g>
   <g id="patch_179">
    <path d="M 824.474164 143.444529 
L 839.450711 143.444529 
L 839.450711 132.746996 
L 824.474164 132.746996 
z
" clip-path="url(#p848e1e63d7)" style="fill: #ff9d9a; opacity: 0.93; stroke: #1f2937; stroke-width: 0.65; stroke-linejoin: miter"/>
   </g>
   <g id="patch_180">
    <path d="M 878.636168 213.937321 
L 893.612715 213.937321 
L 893.612715 203.239788 
L 878.636168 203.239788 
z
" clip-path="url(#p848e1e63d7)" style="fill: #ff9d9a; opacity: 0.93; stroke: #1f2937; stroke-width: 0.65; stroke-linejoin: miter"/>
   </g>
   <g id="patch_181">
    <path d="M 788.713396 194.704042 
L 799.41093 194.704042 
L 799.41093 179.727494 
L 788.713396 179.727494 
z
" clip-path="url(#p848e1e63d7)" style="fill: #ff9d9a; opacity: 0.93; stroke: #1f2937; stroke-width: 0.65; stroke-linejoin: miter"/>
   </g>
   <g id="line2d_7">
    <path d="M 777.587961 187.59758 
" clip-path="url(#p848e1e63d7)" style="fill: none; stroke: #f4c430; stroke-width: 1.5; stroke-linecap: square"/>
    <g clip-path="url(#p848e1e63d7)">
     <use xlink:href="#m48e1c5f40b" x="777.587961" y="187.59758" style="fill: #f4c430; stroke: #8a5a00; stroke-width: 0.7; stroke-linejoin: bevel"/>
    </g>
   </g>
   <g id="line2d_8">
    <path d="M 1040.747291 42.111121 
" clip-path="url(#p848e1e63d7)" style="fill: none; stroke: #f4c430; stroke-width: 1.5; stroke-linecap: square"/>
    <g clip-path="url(#p848e1e63d7)">
     <use xlink:href="#m48e1c5f40b" x="1040.747291" y="42.111121" style="fill: #f4c430; stroke: #8a5a00; stroke-width: 0.7; stroke-linejoin: bevel"/>
    </g>
   </g>
   <g id="line2d_9">
    <path d="M 1045.026304 275.317357 
" clip-path="url(#p848e1e63d7)" style="fill: none; stroke: #f4c430; stroke-width: 1.5; stroke-linecap: square"/>
    <g clip-path="url(#p848e1e63d7)">
     <use xlink:href="#m48e1c5f40b" x="1045.026304" y="275.317357" style="fill: #f4c430; stroke: #8a5a00; stroke-width: 0.7; stroke-linejoin: bevel"/>
    </g>
   </g>
   <g id="text_3">
    <!-- Phase 3 -->
    <g style="fill: #111827" transform="translate(754.053387 22.655815) scale(0.11 -0.11)">
     <defs>
      <path id="DejaVuSans-Bold-33" d="M 2981 2516 
Q 3453 2394 3698 2092 
Q 3944 1791 3944 1325 
Q 3944 631 3412 270 
Q 2881 -91 1863 -91 
Q 1503 -91 1142 -33 
Q 781 25 428 141 
L 428 1069 
Q 766 900 1098 814 
Q 1431 728 1753 728 
Q 2231 728 2486 893 
Q 2741 1059 2741 1369 
Q 2741 1688 2480 1852 
Q 2219 2016 1709 2016 
L 1228 2016 
L 1228 2791 
L 1734 2791 
Q 2188 2791 2409 2933 
Q 2631 3075 2631 3366 
Q 2631 3634 2415 3781 
Q 2200 3928 1806 3928 
Q 1516 3928 1219 3862 
Q 922 3797 628 3669 
L 628 4550 
Q 984 4650 1334 4700 
Q 1684 4750 2022 4750 
Q 2931 4750 3382 4451 
Q 3834 4153 3834 3553 
Q 3834 3144 3618 2883 
Q 3403 2622 2981 2516 
z
" transform="scale(0.015625)"/>
     </defs>
     <use xlink:href="#DejaVuSans-Bold-50"/>
     <use xlink:href="#DejaVuSans-Bold-68" transform="translate(73.291016 0)"/>
     <use xlink:href="#DejaVuSans-Bold-61" transform="translate(144.482422 0)"/>
     <use xlink:href="#DejaVuSans-Bold-73" transform="translate(211.962891 0)"/>
     <use xlink:href="#DejaVuSans-Bold-65" transform="translate(271.484375 0)"/>
     <use xlink:href="#DejaVuSans-Bold-20" transform="translate(339.306641 0)"/>
     <use xlink:href="#DejaVuSans-Bold-33" transform="translate(374.121094 0)"/>
    </g>
   </g>
  </g>
  <g id="text_4">
   <!-- → -->
   <g style="fill: #374151" transform="translate(361.827144 163.715111) scale(0.22 -0.22)">
    <defs>
     <path id="DejaVuSans-Bold-2192" d="M 5050 2225 
L 5050 1788 
L 3822 559 
L 3369 1013 
L 3988 1631 
L 366 1631 
L 366 2381 
L 3988 2381 
L 3369 3000 
L 3822 3453 
L 5050 2225 
z
" transform="scale(0.015625)"/>
    </defs>
    <use xlink:href="#DejaVuSans-Bold-2192"/>
   </g>
  </g>
  <g id="text_5">
   <!-- → -->
   <g style="fill: #374151" transform="translate(730.409544 163.715111) scale(0.22 -0.22)">
    <use xlink:href="#DejaVuSans-Bold-2192"/>
   </g>
  </g>
 </g>
 <defs>
  <clipPath id="pc16f11642d">
   <rect x="3.6" y="3.6" width="359.437134" height="308.088972"/>
  </clipPath>
  <clipPath id="p978594a559">
   <rect x="375.617433" y="3.6" width="359.437134" height="308.088972"/>
  </clipPath>
  <clipPath id="p848e1e63d7">
   <rect x="747.634866" y="3.6" width="359.437134" height="308.088972"/>
  </clipPath>
 </defs>
 <defs>
  <pattern id="h82bec472cb" patternUnits="userSpaceOnUse" x="0" y="0" width="72" height="72">
   <rect x="0" y="0" width="73" height="73" fill="#6b7280"/>
   <path d="M -36 36 
L 36 -36 
M -32 40 
L 40 -32 
M -28 44 
L 44 -28 
M -24 48 
L 48 -24 
M -20 52 
L 52 -20 
M -16 56 
L 56 -16 
M -12 60 
L 60 -12 
M -8 64 
L 64 -8 
M -4 68 
L 68 -4 
M 0 72 
L 72 0 
M 4 76 
L 76 4 
M 8 80 
L 80 8 
M 12 84 
L 84 12 
M 16 88 
L 88 16 
M 20 92 
L 92 20 
M 24 96 
L 96 24 
M 28 100 
L 100 28 
M 32 104 
L 104 32 
M 36 108 
L 108 36 
" style="fill: #111827; stroke: #111827; stroke-width: 1.0; stroke-linecap: butt; stroke-linejoin: miter; stroke-opacity: 0.18"/>
  </pattern>
 </defs>
</svg>
